<?xml version="1.0" encoding="UTF-8" standalone="no"?>
<!-- Created with Inkscape (http://www.inkscape.org/) -->

<svg
   xmlns:dc="http://purl.org/dc/elements/1.1/"
   xmlns:cc="http://creativecommons.org/ns#"
   xmlns:rdf="http://www.w3.org/1999/02/22-rdf-syntax-ns#"
   xmlns:svg="http://www.w3.org/2000/svg"
   xmlns="http://www.w3.org/2000/svg"
   version="1.1"
   width="512"
   height="512"
   viewBox="0 0 512 512"
   id="svg2"
   style="fill:#000000">
  <metadata
     id="metadata73">
    <rdf:RDF>
      <cc:Work
         rdf:about="">
        <dc:format>image/svg+xml</dc:format>
        <dc:type
           rdf:resource="http://purl.org/dc/dcmitype/StillImage" />
        <dc:title></dc:title>
      </cc:Work>
    </rdf:RDF>
  </metadata>
  <defs
     id="defs71">
    <linearGradient
       id="linearGradient3765">
      <stop
         id="stop3767"
         style="stop-color:#008000;stop-opacity:1"
         offset="0" />
    </linearGradient>
  </defs>
  <path
     d="m 254.76555,3.7531868 c -5.69403,0.059948 -11.4992,1.3186265 -17.07001,3.9621522 -12.3545,5.862595 -20.36222,18.322885 -20.37675,31.965331 -4.2e-4,0.436145 -0.0172,0.335465 -0.0304,0.625601 -0.4537,0.209099 -0.61108,0.31715 -1.48967,0.625601 -16.20957,5.691497 -32.88708,16.68106 -46.4435,30.237468 -27.02533,27.02523 -39.38638,56.93629 -44.0008,104.74379 -1.89665,19.65284 -3.82497,31.13683 -7.17949,39.50234 -3.35449,8.36564 -8.2359,14.54942 -18.05311,24.39861 -8.012474,8.0387 -24.392842,22.34312 -35.331668,30.80335 -22.031791,17.03991 -38.083915,34.37393 -46.949984,51.89533 -6.888733,13.61396 -11.0898285,30.98971 -12.7801243,47.30732 -1.6907718,16.31791 -2.0087923,30.86781 4.8558217,41.97514 10.6220456,17.18666 33.9245946,29.17006 65.2116986,39.68112 31.286816,10.51103 70.860806,18.51476 113.948936,22.49186 3.23257,0.29842 6.00617,0.78122 7.984,1.19165 0.45369,0.72448 0.89007,1.48633 1.40025,2.17465 1.65852,2.23907 3.64989,4.52229 5.89854,6.85186 4.49708,4.65913 9.67407,9.29229 14.83563,12.4823 5.4571,3.37274 12.90328,6.54701 19.30436,8.34134 1.20854,0.33894 2.4489,0.63615 3.694,0.89358 4.83813,1.07656 9.86113,1.63863 15.01449,1.63863 24.77106,0 46.57395,-13.1239 58.83642,-32.7696 1.39167,-0.24578 3.33571,-0.54337 6.16666,-0.80441 49.45836,-4.56035 103.26858,-16.28678 134.11733,-29.8502 15.04618,-6.61543 26.55964,-13.32732 35.15287,-21.2407 8.59332,-7.91347 14.10755,-17.35278 16.0572,-27.76485 1.44072,-7.69437 0.43532,-16.9311 -1.01283,-27.76481 -1.44836,-10.83384 -3.61437,-22.03976 -6.43481,-30.23758 -9.4858,-27.57085 -28.40525,-48.90739 -68.25035,-78.9153 -33.42482,-25.17274 -44.81049,-45.18117 -44.92424,-76.88955 -0.0551,-15.36844 -5.50368,-42.85442 -11.2608,-58.15124 C 363.56193,91.021752 338.0986,61.380876 309.60936,47.128316 305.24914,44.946885 301.00293,42.982838 297.48479,41.497889 296.14652,40.933154 295.01064,40.518129 293.88,40.097735 293.8587,19.404504 276.58495,4.7537303 257.20792,3.812768 256.40053,3.773586 255.57854,3.744612 254.76504,3.7532 z m 1.75763,18.3510192 c 10.36381,0.102475 18.66828,7.531838 18.67876,18.023318 0.002,3.153783 0.12154,5.822766 1.28102,8.996763 0.57969,1.586994 1.48744,3.436976 3.36629,5.153775 1.87882,1.716797 4.93066,2.919482 7.53703,2.919482 -0.71799,0 -1.1448,-0.01719 -1.42995,-0.02971 0.20373,0.02158 0.45304,0.04863 0.65539,0.119159 0.80964,0.28203 2.08935,0.790376 3.60467,1.42995 3.03067,1.279147 7.02982,3.111618 11.05233,5.123973 22.91804,11.465435 46.60071,38.531214 56.90004,65.896844 4.23039,11.24053 10.03368,41.73745 10.0692,51.65689 0.13164,36.71634 16.43133,64.68023 52.34213,91.72533 38.76933,29.19777 53.82499,46.75613 61.84542,70.06752 2.00495,5.82775 4.23742,16.65904 5.57068,26.63276 1.33333,9.97376 1.47242,20.33733 1.19173,21.83658 -1.20931,6.45813 -4.10358,11.71897 -10.36719,17.48709 -6.2636,5.76812 -16.0628,11.73378 -30.02898,17.87426 -26.23908,11.53677 -77.67036,23.26043 -124.34596,27.94364 1.05168,-4.21402 1.76008,-8.57411 1.99603,-13.04834 l 13.58448,-1.57879 c 33.78329,-3.96747 64.45004,-10.43295 88.56753,-18.82769 10.02133,-3.48818 20.0201,-7.77476 27.8244,-11.73747 3.90213,-1.98136 7.22034,-3.84884 9.95002,-5.71985 1.36486,-0.93547 2.57778,-1.82782 3.84298,-3.09827 1.26527,-1.2703 3.60471,-2.63049 3.60471,-8.04336 0,-4.94533 -2.32117,-7.25109 -4.02183,-9.02663 -1.70047,-1.77551 -3.49119,-3.14888 -5.57068,-4.52815 -4.15928,-2.75864 -9.40011,-5.45199 -15.5508,-8.22224 -12.30135,-5.54024 -28.12275,-11.17133 -43.76242,-15.16334 -44.44564,-11.34506 -99.04548,-16.77874 -153.03428,-16.5338 -69.41419,0.31484 -137.83833,10.01973 -182.467498,28.59895 -7.911438,3.29341 -14.800743,6.73019 -20.108709,10.00965 -2.653984,1.6397 -4.917592,3.21311 -6.911424,5.03465 -1.993826,1.82145 -5.004821,3.33707 -5.004821,9.83091 0,5.41504 2.340251,6.7737 3.604615,8.04336 1.264841,1.26982 2.479056,2.16319 3.843035,3.09827 2.727962,1.87031 6.021619,3.73952 9.920326,5.71985 7.797037,3.96056 17.792665,8.22621 27.79459,11.7077 24.864476,8.6547 47.760286,13.57911 83.979756,18.14249 l 21.47903,2.71093 c 0.26104,4.44116 0.9607,8.77703 2.02571,12.95889 -41.53303,-3.88651 -79.64719,-11.66627 -108.944184,-21.50884 -29.480599,-9.90406 -49.744226,-22.88895 -55.261647,-31.81634 -1.431465,-2.31624 -3.694785,-15.82386 -2.204495,-30.20774 1.490298,-14.38382 5.5809,-30.35375 10.873619,-40.81304 6.944694,-13.72455 21.09519,-29.57872 41.706862,-45.52012 11.810901,-9.135 28.041115,-23.2747 37.148865,-32.41215 10.4329,-10.46706 17.58766,-19.21168 22.16418,-30.62479 4.57655,-11.41306 6.49065,-24.58511 8.43066,-44.68591 4.39749,-45.55772 14.27573,-68.94155 38.63853,-93.304188 11.63419,-11.634208 26.65739,-21.349762 39.41296,-25.828458 3.76613,-1.322381 7.51876,-2.350993 10.7842,-6.583724 3.26549,-4.23274 3.21359,-8.605731 3.21735,-12.273729 0.007,-5.865844 4.17669,-12.477251 9.71183,-15.103836 3.68475,-1.748538 7.35937,-2.536575 10.81391,-2.502414 z m -4.79625,336.663704 c 9.58153,-0.0691 19.19384,0.0454 28.74794,0.32767 l 0,1.13201 0.0306,0 0,34.40823 c 1.21903,0.70183 2.4171,1.45035 3.6047,2.26401 6.80661,4.664 18.34676,21.38872 20.19804,29.10543 l 2.29385,9.53304 c 0.0475,0.89476 0.0596,1.80375 0.0596,2.71099 0,8.51432 -2.15077,16.49893 -5.8986,23.47498 -1.55686,1.56724 -2.81988,3.3976 -3.39617,5.21334 0.38953,-1.22727 -0.22576,0.38636 -1.63849,1.99595 -1.41279,1.60968 -3.50087,3.65417 -5.83896,5.66014 -4.67621,4.01224 -10.64582,7.97764 -14.03141,9.47356 -0.17124,0.076 -0.36193,0.13482 -0.53614,0.20845 -5.60552,2.19187 -11.70599,3.42607 -18.11274,3.42607 -27.42765,0 -49.45241,-22.02489 -49.45241,-49.45249 0,-18.9542 10.51554,-35.33459 26.06676,-43.64327 l 0,-34.37843 0.53631,0 0,-1.13201 c 5.77075,-0.16855 11.56534,-0.286 17.36783,-0.32767 z m -33.00805,0.92349 0,20.88322 c -6.62704,4.29721 -12.68058,9.7792 -17.78496,16.4443 -4.88457,6.37836 -9.45742,15.23394 -11.85678,22.93887 l -1.10212,3.5451 -19.09573,-2.41298 c -35.55333,-4.4795 -56.56243,-9.03263 -80.166548,-17.24885 -9.134988,-3.17966 -18.624134,-7.23149 -25.500756,-10.72462 -0.55949,-0.28402 -0.757122,-0.4386 -1.281046,-0.71491 3.930926,-2.21587 8.818979,-4.6896 14.656982,-7.11993 33.747608,-14.04932 86.109148,-22.82091 142.130958,-25.5902 z m 77.36626,0.0308 c 37.62472,1.89731 73.84746,6.60948 104.20759,14.35911 14.47292,3.69427 29.57712,9.08415 40.694,14.09101 3.22564,1.45273 5.96942,2.83681 8.37111,4.14078 -0.57157,0.30248 -0.78576,0.49245 -1.40014,0.80436 -6.88373,3.49532 -16.34376,7.56707 -25.5008,10.75441 -22.26564,7.75018 -51.86917,14.05978 -84.60536,17.90408 l -12.98856,1.51944 c -3.87732,-17.50716 -14.40229,-32.59018 -28.77785,-42.39209 l 0,-21.1811 z M 55.466414,396.54255 c -0.400758,0.76636 -0.810104,0.63225 -0.476635,0.32756 0.06565,-0.0605 0.386653,-0.25193 0.476635,-0.32756 z"
     id="path3771-4"
     style="font-size:medium;font-style:normal;font-variant:normal;font-weight:normal;font-stretch:normal;text-indent:0;text-align:start;text-decoration:none;line-height:normal;letter-spacing:normal;word-spacing:normal;text-transform:none;direction:ltr;block-progression:tb;writing-mode:lr-tb;text-anchor:start;baseline-shift:baseline;color:#000000;fill:#000000;fill-opacity:1;stroke:none;stroke-width:19.60000038;marker:none;visibility:visible;display:inline;overflow:visible;enable-background:accumulate;font-family:Sans;-inkscape-font-specification:Sans" />
</svg>
