<?xml version="1.0" encoding="UTF-8" standalone="no"?>
<!-- Created with Inkscape (http://www.inkscape.org/) -->

<svg
   xmlns:dc="http://purl.org/dc/elements/1.1/"
   xmlns:cc="http://creativecommons.org/ns#"
   xmlns:rdf="http://www.w3.org/1999/02/22-rdf-syntax-ns#"
   xmlns:svg="http://www.w3.org/2000/svg"
   xmlns="http://www.w3.org/2000/svg"
   version="1.1"
   width="512"
   height="512"
   viewBox="0 0 512 512"
   id="svg2"
   style="fill:#000000">
  <metadata
     id="metadata73">
    <rdf:RDF>
      <cc:Work
         rdf:about="">
        <dc:format>image/svg+xml</dc:format>
        <dc:type
           rdf:resource="http://purl.org/dc/dcmitype/StillImage" />
        <dc:title></dc:title>
      </cc:Work>
    </rdf:RDF>
  </metadata>
  <defs
     id="defs71">
    <linearGradient
       id="linearGradient3765">
      <stop
         id="stop3767"
         style="stop-color:#008000;stop-opacity:1"
         offset="0" />
    </linearGradient>
  </defs>
  <g
     transform="matrix(0.88663895,0,0,0.88663895,1055.1757,55.304177)"
     id="g3942"
     style="fill:#000000">
    <path
       d="m -901.90625,-41.80873 c -18.52115,0.09142 -34.06236,14.955064 -36.15625,34.6010328 -0.36774,3.4503696 -2.96408,5.751902 -13.65625,11.9625679 -16.4426,9.5508773 -25.59066,17.0979103 -37.5,30.9844423 -25.69915,29.965776 -35.77575,58.6645 -42.15625,120.077757 -2.2649,21.80027 -5.3704,35.77088 -9.875,44.40755 -4.6506,8.91689 -25.7881,31.84391 -50.0938,54.35318 -31.5329,29.2025 -45.3522,48.81115 -52.75,74.87038 -7.5127,26.46505 -9.4028,56.88094 -4.5624,73.09685 10.0025,33.51189 78.8155,63.64322 171.81245,75.21812 l 33.14619,2.0865 c 2.59923,11.51911 -14.9796,-17.17358 -15.49047,-19.57827 -1.02052,-0.16135 -13.52659,-0.89641 -19.21822,-1.70397 -55.44505,-7.86687 -97.81175,-20.12509 -126.68755,-36.65276 -16.819,-9.62684 -25.3571,-17.69702 -27.4062,-25.9073 -4.7443,-19.00872 1.6591,-61.97595 12,-80.57346 7.6186,-13.70157 20.2018,-28.35784 40.7188,-47.3982 40.5508,-37.63294 55.1932,-56.4861 60.625,-78.06967 0.9451,-3.75562 3.4447,-21.40313 5.5624,-39.22609 4.579,-38.53818 6.742,-48.54243 14.37505,-66.628722 11.66277,-27.634756 32.89977,-50.85919 59.28125,-64.855201 7.87696,-4.178916 15.07479,-9.130075 15.96875,-10.9888707 0.89395,-1.858795 2.05697,-6.94379 2.59375,-11.3018447 1.22964,-9.9831166 6.55786,-17.2171776 14.4375,-19.5782726 12.68398,-3.800693 25.96875,5.489165 25.96875,18.1525014 0,10.2736292 3.56435,17.1156866 10.1875,19.4739476 12.62534,4.495428 27.29738,14.601649 39.09375,26.950553 12.0106,12.573164 26.2464,34.118802 31.25,47.293873 6.19232,16.305156 10.77673,40.446506 12.96875,68.263146 3.50124,44.43036 15.24637,65.01244 59.9375,105.02022 34.91149,31.253 47.80609,49.00092 54.59375,75.07902 4.80898,18.47602 7.36043,45.62671 5.15625,54.7357 -6.38058,26.36851 -62.02721,51.37158 -142.5,63.98583 -14.55874,2.28211 -30.24663,4.97367 -31.99258,3.51463 -1.62084,7.67608 -8.61447,13.1102 -12.12024,19.71501 l 34.83157,-2.71244 c 87.96906,-11.79376 148.49077,-37.80842 164.59375,-70.73216 5.42636,-11.09464 6.49249,-21.63011 4.1875,-42.00809 -5.53747,-48.95563 -20.15047,-74.63021 -65.6875,-115.38314 -23.93902,-21.42399 -31.24277,-28.98668 -38.625,-39.99115 -9.57512,-14.27333 -13.74915,-28.47757 -15.40625,-52.44056 -3.08507,-44.61271 -10.87559,-72.804762 -27.75,-100.499476 -13.85992,-22.747239 -32.2176,-40.572087 -53.4375,-51.918936 -10.70055,-5.7218709 -12.4085,-7.2804934 -12.4375,-11.0236454 -0.0504,-6.5068826 -5.07325,-17.2799626 -10.90625,-23.4382876 -7.33574,-7.744898 -15.82862,-11.286822 -26.875,-11.232295 z"
       id="path3859"
       style="fill:#000000;fill-opacity:1;stroke:none" />
    <path
       d="m -912.59304,498.52763 c -9.74346,-2.44947 -21.35293,-7.91196 -29.57748,-13.9168 -14.28758,-10.43152 -21.54644,-21.79118 -23.71127,-37.10658 -0.71481,-5.05704 -1.883,-9.77797 -2.59598,-10.49095 -0.71299,-0.71299 -15.07563,-3.67247 -31.91703,-6.57664 -50.4088,-8.69262 -70.9618,-14.45631 -97.0303,-27.21024 -23.4624,-11.47888 -25.926,-18.20328 -10.3252,-28.18295 38.6631,-24.73254 113.53529,-39.09231 203.64354,-39.05693 63.35585,0.0249 107.00285,4.84264 152.85293,16.87191 36.25654,9.5123 66.16945,24.84258 66.16945,33.91164 0,7.4036 -31.32326,23.93491 -60.3901,31.87178 -15.69594,4.28587 -44.90562,10.17386 -65.58567,13.22055 -9.80341,1.44429 -18.56478,3.08356 -19.46969,3.64283 -0.90491,0.55927 -2.32637,5.2459 -3.15879,10.41473 -1.93319,12.004 -5.71007,19.28967 -15.00285,28.94081 -14.73212,15.3002 -30.59036,23.28698 -48.64844,24.50106 -5.17904,0.3482 -12.04294,-0.0272 -15.25312,-0.83422 l 0,0 z m 32.81496,-20.14738 c 8.99296,-3.79822 21.73952,-16.72001 26.22729,-26.58784 2.58818,-5.69099 3.48149,-10.46455 3.46174,-18.49857 -0.0327,-13.30679 -4.78932,-24.05837 -17.02438,-38.48096 l -8.19466,-9.65979 0,-16.92088 0,-16.92087 -7.28679,0.007 c -4.00774,0.004 -14.96846,0.44964 -24.35717,0.99067 l -17.07035,0.9837 -0.68787,16.69513 -0.68786,16.69513 -7.85363,7.25804 c -31.65594,29.25537 -16.5114,81.23122 25.72837,88.29945 6.71809,1.12417 20.47615,-0.78994 27.74531,-3.86011 z m -83.07393,-71.45916 c 3.40405,-6.53894 10.34228,-16.48781 15.41827,-22.10861 l 9.22911,-10.21964 0,-11.5443 0,-11.54431 -4.98571,0.64842 c -2.74213,0.35663 -16.03095,1.73707 -29.53069,3.06764 -42.89837,4.22818 -85.61487,13.47626 -110.50477,23.92413 -16.0915,6.75463 -15.5626,8.60897 4.6545,16.31748 23.1603,8.83073 55.2778,16.50035 87.54923,20.90662 23.54173,3.21435 21.16333,4.01199 28.17006,-9.44743 z m 158.87416,8.03449 c 27.2989,-4.27877 50.20366,-9.47324 67.9741,-15.41555 15.18643,-5.07823 29.4425,-11.45714 29.4425,-13.1741 0,-3.52295 -41.01993,-18.00692 -64.70353,-22.84656 -17.48412,-3.5728 -52.03518,-8.36853 -71.06097,-9.86335 -6.74987,-0.53033 -13.82573,-1.28799 -15.72414,-1.68368 -3.35576,-0.69947 -3.45164,-0.3725 -3.45164,11.7703 l 0,12.48975 8.82086,9.47502 c 5.20121,5.58694 11.19599,14.32284 14.60889,21.28885 3.18343,6.4976 6.63507,11.81203 7.67031,11.80985 1.03525,-0.002 12.92589,-1.73492 26.42362,-3.85053 l 0,0 z"
       id="path3938"
       style="fill:#000000;fill-opacity:1;stroke:none" />
  </g>
</svg>
