<?xml version="1.0" encoding="UTF-8" standalone="no"?>
<svg
   xmlns:dc="http://purl.org/dc/elements/1.1/"
   xmlns:cc="http://creativecommons.org/ns#"
   xmlns:rdf="http://www.w3.org/1999/02/22-rdf-syntax-ns#"
   xmlns:svg="http://www.w3.org/2000/svg"
   xmlns="http://www.w3.org/2000/svg"
   id="svg4136"
   preserveAspectRatio="xMidYMid meet"
   viewBox="0 0 468 408"
   height="408pt"
   width="468pt"
   version="1.0">
  <defs
     id="defs4164" />
  <metadata
     id="metadata4138">
Created by potrace 1.8, written by Peter Selinger 2001-2007
<rdf:RDF>
  <cc:Work
     rdf:about="">
    <dc:format>image/svg+xml</dc:format>
    <dc:type
       rdf:resource="http://purl.org/dc/dcmitype/StillImage" />
    <dc:title></dc:title>
  </cc:Work>
</rdf:RDF>
</metadata>
  <path
     d="m 291.39304,1.66244 -101.34722,0.79054 -6.79865,4.74324 c -3.63648,2.529728 -8.53783,7.272968 -10.90945,10.27702 -2.37162,3.004052 -41.74051,86.01075 -87.591832,184.35393 C 18.18242,345.07302 1.58108,381.75407 1.58108,386.97164 c 0,8.22161 5.53378,16.44323 12.64864,18.97296 4.110808,1.42297 37.787812,1.89729 129.80667,1.89729 141.34855,0.15811 135.02423,0.63243 147.83098,-12.17431 6.95675,-6.79865 13.9135,-21.18648 90.12156,-184.82826 C 427.36592,113.28669 465.31184,30.91242 466.4186,27.75026 470.3713,15.89216 463.41455,4.508384 450.44969,1.820548 446.18078,0.8719 431.31862,0.239468 417.72134,0.397576 404.12405,0.713792 347.20517,1.188116 291.39304,1.66244 Z m 87.27562,165.53908 c -31.46349,67.67022 -66.24725,142.13909 -77.1567,165.69718 l -19.92161,42.68916 -127.43505,0.47432 C 83.955348,376.22029 27.036468,375.90408 27.352684,375.27164 27.827008,374.4811 62.45266,300.32845 104.35128,210.365 146.2499,120.40155 180.87555,46.248896 181.34988,45.458356 181.66609,44.825924 239.2174,44.3516 308.94303,44.3516 l 127.11883,0 -57.3932,122.84992 z"
     id="path4142"
     style="fill:#000000;stroke:none" />
  <path
     d="m 196.05392,51.150244 c -3.00405,0.948648 -8.69594,5.059456 -12.49053,9.012156 -6.00811,6.166212 -14.86215,24.190524 -70.67428,144.3526 -67.82833,145.61747 -67.670222,145.14315 -61.345902,154.31341 5.691888,8.06351 5.849996,8.06351 111.466142,8.06351 72.88779,0 99.92425,-0.47432 104.66749,-1.8973 14.86216,-4.42702 14.07162,-2.84594 83.32292,-151.46746 67.1959,-144.194496 68.30266,-147.04044 62.45266,-155.894488 -5.53378,-8.537832 -4.90135,-8.537832 -112.5729,-8.379724 -67.98644,0.158108 -101.03101,0.79054 -104.8256,1.897296 z M 393.2146,72.336716 c -0.31622,0.79054 -28.61755,61.187794 -62.76888,134.549904 -38.57835,82.8486 -63.2432,134.07559 -65.2986,135.49856 -2.84595,1.8973 -10.90946,2.37162 -44.90268,2.37162 l -41.42429,0 1.73919,-4.74324 c 2.21351,-6.48243 0.63243,-11.54188 -4.26892,-14.22972 -6.79864,-3.63648 -12.01621,-0.63243 -17.23377,9.9608 l -4.42703,9.01216 -41.89862,0 c -22.925656,0 -41.424292,-0.47432 -41.108076,-1.26486 C 71.93914,342.8595 99.924256,282.93657 133.60126,210.365 167.43637,137.79343 196.37014,76.76374 198.10932,74.708336 l 3.16216,-3.478376 96.28778,0 c 52.96618,0 95.97155,0.474324 95.65534,1.106756 z"
     id="path4144"
     style="fill:#000000;stroke:none" />
  <path
     d="m 202.37824,80.71644 c -4.58513,4.585132 -4.11081,11.699992 0.94865,15.652692 4.11081,3.320268 5.69189,3.320268 85.22021,3.320268 79.52832,0 81.1094,0 85.22021,-3.320268 5.05946,-3.9527 5.53378,-11.06756 0.94865,-15.652692 -3.00405,-3.004052 -5.21756,-3.16216 -86.16886,-3.16216 -80.9513,0 -83.16481,0.158108 -86.16886,3.16216 z"
     id="path4146"
     style="fill:#000000;stroke:none" />
  <path
     d="m 189.09717,107.91102 c -1.42297,1.89729 -2.52973,5.05945 -2.52973,6.79864 0,1.73919 1.10676,4.90135 2.52973,6.79864 l 2.37162,3.47838 84.27156,0 c 79.68643,0 84.42967,-0.15811 86.80129,-2.84594 3.47838,-3.9527 3.32027,-11.8581 -0.1581,-15.02026 -2.68784,-2.37162 -11.06756,-2.68784 -86.9594,-2.68784 l -83.95535,0 -2.37162,3.47838 z"
     id="path4148"
     style="fill:#000000;stroke:none" />
  <path
     d="m 180.71744,131.311 c -6.95675,2.84594 -8.85404,12.17432 -3.63648,17.39188 3.00405,3.00405 5.21756,3.16216 86.80129,3.16216 l 83.79724,0 2.37162,-3.47838 c 3.47838,-4.90134 3.16216,-11.22566 -0.79054,-14.86215 -3.16216,-2.84594 -7.11486,-3.00405 -84.27156,-3.32027 -44.58646,-0.1581 -82.37427,0.31622 -84.27157,1.10676 z"
     id="path4150"
     style="fill:#000000;stroke:none" />
  <path
     d="m 165.22286,160.40287 c -4.74324,4.74324 -5.05946,10.90945 -0.79054,15.17837 3.00405,3.00405 5.21756,3.16216 86.16886,3.16216 80.9513,0 83.16481,-0.15811 86.16886,-3.16216 3.63648,-3.63648 4.11081,-10.75134 0.94865,-15.17837 -2.21351,-2.84594 -5.21757,-3.00405 -85.37832,-3.47837 l -83.16481,-0.47433 -3.9527,3.9527 z"
     id="path4152"
     style="fill:#000000;stroke:none" />
</svg>
